<?xml version="1.0" encoding="UTF-8" standalone="no"?>
<!DOCTYPE svg PUBLIC "-//W3C//DTD SVG 1.1//EN"
 "http://www.w3.org/Graphics/SVG/1.1/DTD/svg11.dtd">
<!-- Generated by graphviz version 2.38.0 (20140413.2041)
 -->
<!-- Title: controllers_diagram Pages: 1 -->
<svg width="586pt" height="596pt"
 viewBox="0.00 0.00 585.50 596.00" xmlns="http://www.w3.org/2000/svg" xmlns:xlink="http://www.w3.org/1999/xlink">
<g id="graph0" class="graph" transform="scale(1 1) rotate(0) translate(207.5 388)">
<title>controllers_diagram</title>
<polygon fill="none" stroke="none" points="-207.5,208 -207.5,-388 378,-388 378,208 -207.5,208"/>
<!-- _diagram_info -->
<g id="node1" class="node"><title>_diagram_info</title>
<text text-anchor="start" x="93" y="140.4" font-family="Times,serif" font-size="13.00">Controllers diagram</text>
<text text-anchor="start" x="93" y="154.4" font-family="Times,serif" font-size="13.00">Date: Oct 22 2016 &#45; 11:54</text>
<text text-anchor="start" x="93" y="168.4" font-family="Times,serif" font-size="13.00">Migration version: 20161022143505</text>
<text text-anchor="start" x="93" y="182.4" font-family="Times,serif" font-size="13.00">Generated by RailRoady 1.5.2</text>
<text text-anchor="start" x="93" y="196.4" font-family="Times,serif" font-size="13.00">http://railroady.prestonlee.com</text>
</g>
<!-- CountriesController -->
<g id="node2" class="node"><title>CountriesController</title>
<path fill="none" stroke="black" d="M-56.5,118.5C-56.5,118.5 44.5,118.5 44.5,118.5 50.5,118.5 56.5,112.5 56.5,106.5 56.5,106.5 56.5,-82.5 56.5,-82.5 56.5,-88.5 50.5,-94.5 44.5,-94.5 44.5,-94.5 -56.5,-94.5 -56.5,-94.5 -62.5,-94.5 -68.5,-88.5 -68.5,-82.5 -68.5,-82.5 -68.5,106.5 -68.5,106.5 -68.5,112.5 -62.5,118.5 -56.5,118.5"/>
<text text-anchor="middle" x="-6" y="-79.3" font-family="Times,serif" font-size="14.00">CountriesController</text>
<polyline fill="none" stroke="black" points="-68.5,-71.5 56.5,-71.5 "/>
<text text-anchor="start" x="-60.5" y="-56.3" font-family="Times,serif" font-size="14.00">create</text>
<text text-anchor="start" x="-60.5" y="-41.3" font-family="Times,serif" font-size="14.00">destroy</text>
<text text-anchor="start" x="-60.5" y="-26.3" font-family="Times,serif" font-size="14.00">edit</text>
<text text-anchor="start" x="-60.5" y="-11.3" font-family="Times,serif" font-size="14.00">index</text>
<text text-anchor="start" x="-60.5" y="3.7" font-family="Times,serif" font-size="14.00">new</text>
<text text-anchor="start" x="-60.5" y="18.7" font-family="Times,serif" font-size="14.00">show</text>
<text text-anchor="start" x="-60.5" y="33.7" font-family="Times,serif" font-size="14.00">update</text>
<polyline fill="none" stroke="black" points="-68.5,41.5 56.5,41.5 "/>
<polyline fill="none" stroke="black" points="-68.5,65.5 56.5,65.5 "/>
<text text-anchor="start" x="-60.5" y="80.7" font-family="Times,serif" font-size="14.00">_layout</text>
<text text-anchor="start" x="-60.5" y="95.7" font-family="Times,serif" font-size="14.00">country_params</text>
<text text-anchor="start" x="-60.5" y="110.7" font-family="Times,serif" font-size="14.00">set_country</text>
</g>
<!-- LandingController -->
<g id="node3" class="node"><title>LandingController</title>
<path fill="none" stroke="black" d="M-191.5,-205C-191.5,-205 -98.5,-205 -98.5,-205 -92.5,-205 -86.5,-211 -86.5,-217 -86.5,-217 -86.5,-301 -86.5,-301 -86.5,-307 -92.5,-313 -98.5,-313 -98.5,-313 -191.5,-313 -191.5,-313 -197.5,-313 -203.5,-307 -203.5,-301 -203.5,-301 -203.5,-217 -203.5,-217 -203.5,-211 -197.5,-205 -191.5,-205"/>
<text text-anchor="middle" x="-145" y="-297.8" font-family="Times,serif" font-size="14.00">LandingController</text>
<polyline fill="none" stroke="black" points="-203.5,-290 -86.5,-290 "/>
<text text-anchor="start" x="-195.5" y="-274.8" font-family="Times,serif" font-size="14.00">adios</text>
<text text-anchor="start" x="-195.5" y="-259.8" font-family="Times,serif" font-size="14.00">bienvenido</text>
<polyline fill="none" stroke="black" points="-203.5,-252 -86.5,-252 "/>
<polyline fill="none" stroke="black" points="-203.5,-228 -86.5,-228 "/>
<text text-anchor="start" x="-195.5" y="-212.8" font-family="Times,serif" font-size="14.00">_layout</text>
</g>
<!-- ApplicationController -->
<g id="node4" class="node"><title>ApplicationController</title>
<path fill="none" stroke="black" d="M250,84C250,84 362,84 362,84 368,84 374,78 374,72 374,72 374,2 374,2 374,-4 368,-10 362,-10 362,-10 250,-10 250,-10 244,-10 238,-4 238,2 238,2 238,72 238,72 238,78 244,84 250,84"/>
<text text-anchor="middle" x="306" y="5.2" font-family="Times,serif" font-size="14.00">ApplicationController</text>
<polyline fill="none" stroke="black" points="238,13 374,13 "/>
<polyline fill="none" stroke="black" points="238,37 374,37 "/>
<polyline fill="none" stroke="black" points="238,61 374,61 "/>
<text text-anchor="start" x="246" y="76.2" font-family="Times,serif" font-size="14.00">_layout</text>
</g>
<!-- ProvincesController -->
<g id="node5" class="node"><title>ProvincesController</title>
<path fill="none" stroke="black" d="M96.5,84.5C96.5,84.5 197.5,84.5 197.5,84.5 203.5,84.5 209.5,78.5 209.5,72.5 209.5,72.5 209.5,-116.5 209.5,-116.5 209.5,-122.5 203.5,-128.5 197.5,-128.5 197.5,-128.5 96.5,-128.5 96.5,-128.5 90.5,-128.5 84.5,-122.5 84.5,-116.5 84.5,-116.5 84.5,72.5 84.5,72.5 84.5,78.5 90.5,84.5 96.5,84.5"/>
<text text-anchor="middle" x="147" y="-113.3" font-family="Times,serif" font-size="14.00">ProvincesController</text>
<polyline fill="none" stroke="black" points="84.5,-105.5 209.5,-105.5 "/>
<text text-anchor="start" x="92.5" y="-90.3" font-family="Times,serif" font-size="14.00">create</text>
<text text-anchor="start" x="92.5" y="-75.3" font-family="Times,serif" font-size="14.00">destroy</text>
<text text-anchor="start" x="92.5" y="-60.3" font-family="Times,serif" font-size="14.00">edit</text>
<text text-anchor="start" x="92.5" y="-45.3" font-family="Times,serif" font-size="14.00">index</text>
<text text-anchor="start" x="92.5" y="-30.3" font-family="Times,serif" font-size="14.00">new</text>
<text text-anchor="start" x="92.5" y="-15.3" font-family="Times,serif" font-size="14.00">show</text>
<text text-anchor="start" x="92.5" y="-0.3" font-family="Times,serif" font-size="14.00">update</text>
<polyline fill="none" stroke="black" points="84.5,7.5 209.5,7.5 "/>
<polyline fill="none" stroke="black" points="84.5,31.5 209.5,31.5 "/>
<text text-anchor="start" x="92.5" y="46.7" font-family="Times,serif" font-size="14.00">_layout</text>
<text text-anchor="start" x="92.5" y="61.7" font-family="Times,serif" font-size="14.00">province_params</text>
<text text-anchor="start" x="92.5" y="76.7" font-family="Times,serif" font-size="14.00">set_province</text>
</g>
<!-- UsersController -->
<g id="node6" class="node"><title>UsersController</title>
<path fill="none" stroke="black" d="M182.5,-170.5C182.5,-170.5 261.5,-170.5 261.5,-170.5 267.5,-170.5 273.5,-176.5 273.5,-182.5 273.5,-182.5 273.5,-371.5 273.5,-371.5 273.5,-377.5 267.5,-383.5 261.5,-383.5 261.5,-383.5 182.5,-383.5 182.5,-383.5 176.5,-383.5 170.5,-377.5 170.5,-371.5 170.5,-371.5 170.5,-182.5 170.5,-182.5 170.5,-176.5 176.5,-170.5 182.5,-170.5"/>
<text text-anchor="middle" x="222" y="-368.3" font-family="Times,serif" font-size="14.00">UsersController</text>
<polyline fill="none" stroke="black" points="170.5,-360.5 273.5,-360.5 "/>
<text text-anchor="start" x="178.5" y="-345.3" font-family="Times,serif" font-size="14.00">create</text>
<text text-anchor="start" x="178.5" y="-330.3" font-family="Times,serif" font-size="14.00">destroy</text>
<text text-anchor="start" x="178.5" y="-315.3" font-family="Times,serif" font-size="14.00">edit</text>
<text text-anchor="start" x="178.5" y="-300.3" font-family="Times,serif" font-size="14.00">index</text>
<text text-anchor="start" x="178.5" y="-285.3" font-family="Times,serif" font-size="14.00">new</text>
<text text-anchor="start" x="178.5" y="-270.3" font-family="Times,serif" font-size="14.00">show</text>
<text text-anchor="start" x="178.5" y="-255.3" font-family="Times,serif" font-size="14.00">update</text>
<polyline fill="none" stroke="black" points="170.5,-247.5 273.5,-247.5 "/>
<polyline fill="none" stroke="black" points="170.5,-223.5 273.5,-223.5 "/>
<text text-anchor="start" x="178.5" y="-208.3" font-family="Times,serif" font-size="14.00">_layout</text>
<text text-anchor="start" x="178.5" y="-193.3" font-family="Times,serif" font-size="14.00">set_user</text>
<text text-anchor="start" x="178.5" y="-178.3" font-family="Times,serif" font-size="14.00">user_params</text>
</g>
<!-- PhonesController -->
<g id="node7" class="node"><title>PhonesController</title>
<path fill="none" stroke="black" d="M-39.5,-136.5C-39.5,-136.5 47.5,-136.5 47.5,-136.5 53.5,-136.5 59.5,-142.5 59.5,-148.5 59.5,-148.5 59.5,-337.5 59.5,-337.5 59.5,-343.5 53.5,-349.5 47.5,-349.5 47.5,-349.5 -39.5,-349.5 -39.5,-349.5 -45.5,-349.5 -51.5,-343.5 -51.5,-337.5 -51.5,-337.5 -51.5,-148.5 -51.5,-148.5 -51.5,-142.5 -45.5,-136.5 -39.5,-136.5"/>
<text text-anchor="middle" x="4" y="-334.3" font-family="Times,serif" font-size="14.00">PhonesController</text>
<polyline fill="none" stroke="black" points="-51.5,-326.5 59.5,-326.5 "/>
<text text-anchor="start" x="-43.5" y="-311.3" font-family="Times,serif" font-size="14.00">create</text>
<text text-anchor="start" x="-43.5" y="-296.3" font-family="Times,serif" font-size="14.00">destroy</text>
<text text-anchor="start" x="-43.5" y="-281.3" font-family="Times,serif" font-size="14.00">edit</text>
<text text-anchor="start" x="-43.5" y="-266.3" font-family="Times,serif" font-size="14.00">index</text>
<text text-anchor="start" x="-43.5" y="-251.3" font-family="Times,serif" font-size="14.00">new</text>
<text text-anchor="start" x="-43.5" y="-236.3" font-family="Times,serif" font-size="14.00">show</text>
<text text-anchor="start" x="-43.5" y="-221.3" font-family="Times,serif" font-size="14.00">update</text>
<polyline fill="none" stroke="black" points="-51.5,-213.5 59.5,-213.5 "/>
<polyline fill="none" stroke="black" points="-51.5,-189.5 59.5,-189.5 "/>
<text text-anchor="start" x="-43.5" y="-174.3" font-family="Times,serif" font-size="14.00">_layout</text>
<text text-anchor="start" x="-43.5" y="-159.3" font-family="Times,serif" font-size="14.00">phone_params</text>
<text text-anchor="start" x="-43.5" y="-144.3" font-family="Times,serif" font-size="14.00">set_phone</text>
</g>
</g>
</svg>
