<?xml version="1.0" encoding="UTF-8" standalone="no"?>
<!DOCTYPE svg PUBLIC "-//W3C//DTD SVG 1.1//EN"
 "http://www.w3.org/Graphics/SVG/1.1/DTD/svg11.dtd">
<!-- Generated by graphviz version 2.38.0 (20140413.2041)
 -->
<!-- Title: models_diagram Pages: 1 -->
<svg width="544pt" height="619pt"
 viewBox="0.00 0.00 544.34 619.00" xmlns="http://www.w3.org/2000/svg" xmlns:xlink="http://www.w3.org/1999/xlink">
<g id="graph0" class="graph" transform="scale(1 1) rotate(0) translate(4 615)">
<title>models_diagram</title>
<polygon fill="none" stroke="none" points="-4,4 -4,-615 540.343,-615 540.343,4 -4,4"/>
<!-- _diagram_info -->
<g id="node1" class="node"><title>_diagram_info</title>
<text text-anchor="start" x="8" y="-589.6" font-family="Times,serif" font-size="13.00">Models diagram</text>
<text text-anchor="start" x="8" y="-575.6" font-family="Times,serif" font-size="13.00">Date: Oct 22 2016 &#45; 11:53</text>
<text text-anchor="start" x="8" y="-561.6" font-family="Times,serif" font-size="13.00">Migration version: 20161022143505</text>
<text text-anchor="start" x="8" y="-547.6" font-family="Times,serif" font-size="13.00">Generated by RailRoady 1.5.2</text>
<text text-anchor="start" x="8" y="-533.6" font-family="Times,serif" font-size="13.00">http://railroady.prestonlee.com</text>
</g>
<!-- Phone -->
<g id="node2" class="node"><title>Phone</title>
<path fill="none" stroke="black" d="M244.5,-0.5C244.5,-0.5 351.5,-0.5 351.5,-0.5 357.5,-0.5 363.5,-6.5 363.5,-12.5 363.5,-12.5 363.5,-109.5 363.5,-109.5 363.5,-115.5 357.5,-121.5 351.5,-121.5 351.5,-121.5 244.5,-121.5 244.5,-121.5 238.5,-121.5 232.5,-115.5 232.5,-109.5 232.5,-109.5 232.5,-12.5 232.5,-12.5 232.5,-6.5 238.5,-0.5 244.5,-0.5"/>
<text text-anchor="middle" x="298" y="-106.3" font-family="Times,serif" font-size="14.00">Phone</text>
<polyline fill="none" stroke="black" points="232.5,-98.5 363.5,-98.5 "/>
<text text-anchor="start" x="240.5" y="-83.3" font-family="Times,serif" font-size="14.00">id :INTEGER</text>
<text text-anchor="start" x="240.5" y="-68.3" font-family="Times,serif" font-size="14.00">telefono :varchar</text>
<text text-anchor="start" x="240.5" y="-53.3" font-family="Times,serif" font-size="14.00">type_id :integer</text>
<text text-anchor="start" x="240.5" y="-38.3" font-family="Times,serif" font-size="14.00">user_id :integer</text>
<text text-anchor="start" x="240.5" y="-23.3" font-family="Times,serif" font-size="14.00">created_at :datetime</text>
<text text-anchor="start" x="240.5" y="-8.3" font-family="Times,serif" font-size="14.00">updated_at :datetime</text>
</g>
<!-- ApplicationRecord -->
<g id="node3" class="node"><title>ApplicationRecord</title>
<ellipse fill="none" stroke="black" cx="459" cy="-565" rx="77.1866" ry="18"/>
<text text-anchor="middle" x="459" y="-561.3" font-family="Times,serif" font-size="14.00">ApplicationRecord</text>
</g>
<!-- User -->
<g id="node4" class="node"><title>User</title>
<path fill="none" stroke="black" d="M244.5,-158.5C244.5,-158.5 351.5,-158.5 351.5,-158.5 357.5,-158.5 363.5,-164.5 363.5,-170.5 363.5,-170.5 363.5,-327.5 363.5,-327.5 363.5,-333.5 357.5,-339.5 351.5,-339.5 351.5,-339.5 244.5,-339.5 244.5,-339.5 238.5,-339.5 232.5,-333.5 232.5,-327.5 232.5,-327.5 232.5,-170.5 232.5,-170.5 232.5,-164.5 238.5,-158.5 244.5,-158.5"/>
<text text-anchor="middle" x="298" y="-324.3" font-family="Times,serif" font-size="14.00">User</text>
<polyline fill="none" stroke="black" points="232.5,-316.5 363.5,-316.5 "/>
<text text-anchor="start" x="240.5" y="-301.3" font-family="Times,serif" font-size="14.00">id :INTEGER</text>
<text text-anchor="start" x="240.5" y="-286.3" font-family="Times,serif" font-size="14.00">nombre :varchar</text>
<text text-anchor="start" x="240.5" y="-271.3" font-family="Times,serif" font-size="14.00">apellido :varchar</text>
<text text-anchor="start" x="240.5" y="-256.3" font-family="Times,serif" font-size="14.00">email :varchar</text>
<text text-anchor="start" x="240.5" y="-241.3" font-family="Times,serif" font-size="14.00">activo :boolean</text>
<text text-anchor="start" x="240.5" y="-226.3" font-family="Times,serif" font-size="14.00">edad :integer</text>
<text text-anchor="start" x="240.5" y="-211.3" font-family="Times,serif" font-size="14.00">detalles :text</text>
<text text-anchor="start" x="240.5" y="-196.3" font-family="Times,serif" font-size="14.00">created_at :datetime</text>
<text text-anchor="start" x="240.5" y="-181.3" font-family="Times,serif" font-size="14.00">updated_at :datetime</text>
<text text-anchor="start" x="240.5" y="-166.3" font-family="Times,serif" font-size="14.00">province_id :integer</text>
</g>
<!-- User&#45;&gt;Phone -->
<g id="edge1" class="edge"><title>User&#45;&gt;Phone</title>
<path fill="none" stroke="#9c4c28" d="M298,-150.098C298,-143.872 298,-137.675 298,-131.62"/>
<ellipse fill="none" stroke="#9c4c28" cx="298" cy="-154.269" rx="4" ry="4"/>
<polygon fill="#9c4c28" stroke="#9c4c28" points="298,-131.583 302.5,-121.583 298,-126.583 298,-121.583 298,-121.583 298,-121.583 298,-126.583 293.5,-121.583 298,-131.583 298,-131.583"/>
</g>
<!-- Province -->
<g id="node5" class="node"><title>Province</title>
<path fill="none" stroke="black" d="M244.5,-376.5C244.5,-376.5 351.5,-376.5 351.5,-376.5 357.5,-376.5 363.5,-382.5 363.5,-388.5 363.5,-388.5 363.5,-470.5 363.5,-470.5 363.5,-476.5 357.5,-482.5 351.5,-482.5 351.5,-482.5 244.5,-482.5 244.5,-482.5 238.5,-482.5 232.5,-476.5 232.5,-470.5 232.5,-470.5 232.5,-388.5 232.5,-388.5 232.5,-382.5 238.5,-376.5 244.5,-376.5"/>
<text text-anchor="middle" x="298" y="-467.3" font-family="Times,serif" font-size="14.00">Province</text>
<polyline fill="none" stroke="black" points="232.5,-459.5 363.5,-459.5 "/>
<text text-anchor="start" x="240.5" y="-444.3" font-family="Times,serif" font-size="14.00">id :INTEGER</text>
<text text-anchor="start" x="240.5" y="-429.3" font-family="Times,serif" font-size="14.00">provincia :varchar</text>
<text text-anchor="start" x="240.5" y="-414.3" font-family="Times,serif" font-size="14.00">country_id :integer</text>
<text text-anchor="start" x="240.5" y="-399.3" font-family="Times,serif" font-size="14.00">created_at :datetime</text>
<text text-anchor="start" x="240.5" y="-384.3" font-family="Times,serif" font-size="14.00">updated_at :datetime</text>
</g>
<!-- Province&#45;&gt;User -->
<g id="edge2" class="edge"><title>Province&#45;&gt;User</title>
<path fill="none" stroke="#4ca22c" d="M298,-368.134C298,-362.277 298,-356.233 298,-350.121"/>
<ellipse fill="none" stroke="#4ca22c" cx="298" cy="-372.391" rx="4" ry="4"/>
<polygon fill="#4ca22c" stroke="#4ca22c" points="298,-349.789 302.5,-339.789 298,-344.789 298,-339.789 298,-339.789 298,-339.789 298,-344.789 293.5,-339.789 298,-349.789 298,-349.789"/>
</g>
<!-- Country -->
<g id="node6" class="node"><title>Country</title>
<path fill="none" stroke="black" d="M244.5,-519.5C244.5,-519.5 351.5,-519.5 351.5,-519.5 357.5,-519.5 363.5,-525.5 363.5,-531.5 363.5,-531.5 363.5,-598.5 363.5,-598.5 363.5,-604.5 357.5,-610.5 351.5,-610.5 351.5,-610.5 244.5,-610.5 244.5,-610.5 238.5,-610.5 232.5,-604.5 232.5,-598.5 232.5,-598.5 232.5,-531.5 232.5,-531.5 232.5,-525.5 238.5,-519.5 244.5,-519.5"/>
<text text-anchor="middle" x="298" y="-595.3" font-family="Times,serif" font-size="14.00">Country</text>
<polyline fill="none" stroke="black" points="232.5,-587.5 363.5,-587.5 "/>
<text text-anchor="start" x="240.5" y="-572.3" font-family="Times,serif" font-size="14.00">id :INTEGER</text>
<text text-anchor="start" x="240.5" y="-557.3" font-family="Times,serif" font-size="14.00">pais :varchar</text>
<text text-anchor="start" x="240.5" y="-542.3" font-family="Times,serif" font-size="14.00">created_at :datetime</text>
<text text-anchor="start" x="240.5" y="-527.3" font-family="Times,serif" font-size="14.00">updated_at :datetime</text>
</g>
<!-- Country&#45;&gt;Province -->
<g id="edge3" class="edge"><title>Country&#45;&gt;Province</title>
<path fill="none" stroke="#0efb90" d="M298,-511.111C298,-505.148 298,-499.03 298,-492.96"/>
<ellipse fill="none" stroke="#0efb90" cx="298" cy="-515.175" rx="4" ry="4"/>
<polygon fill="#0efb90" stroke="#0efb90" points="298,-492.824 302.5,-482.824 298,-487.824 298,-482.824 298,-482.824 298,-482.824 298,-487.824 293.5,-482.824 298,-492.824 298,-492.824"/>
</g>
</g>
</svg>
