<?xml version="1.0" encoding="UTF-8" standalone="no"?>
<!DOCTYPE svg PUBLIC "-//W3C//DTD SVG 1.1//EN"
 "http://www.w3.org/Graphics/SVG/1.1/DTD/svg11.dtd">
<!-- Generated by graphviz version 2.38.0 (20140413.2041)
 -->
<!-- Title: models_diagram Pages: 1 -->
<svg width="492pt" height="302pt"
 viewBox="0.00 0.00 492.34 302.00" xmlns="http://www.w3.org/2000/svg" xmlns:xlink="http://www.w3.org/1999/xlink">
<g id="graph0" class="graph" transform="scale(1 1) rotate(0) translate(4 298)">
<title>models_diagram</title>
<polygon fill="none" stroke="none" points="-4,4 -4,-298 488.343,-298 488.343,4 -4,4"/>
<!-- _diagram_info -->
<g id="node1" class="node"><title>_diagram_info</title>
<text text-anchor="start" x="8" y="-279.6" font-family="Times,serif" font-size="13.00">Models diagram</text>
<text text-anchor="start" x="8" y="-265.6" font-family="Times,serif" font-size="13.00">Date: Oct 22 2016 &#45; 11:54</text>
<text text-anchor="start" x="8" y="-251.6" font-family="Times,serif" font-size="13.00">Migration version: 20161022143505</text>
<text text-anchor="start" x="8" y="-237.6" font-family="Times,serif" font-size="13.00">Generated by RailRoady 1.5.2</text>
<text text-anchor="start" x="8" y="-223.6" font-family="Times,serif" font-size="13.00">http://railroady.prestonlee.com</text>
</g>
<!-- Phone -->
<g id="node2" class="node"><title>Phone</title>
<ellipse fill="none" stroke="black" cx="272" cy="-18" rx="32.4942" ry="18"/>
<text text-anchor="middle" x="272" y="-14.3" font-family="Times,serif" font-size="14.00">Phone</text>
</g>
<!-- ApplicationRecord -->
<g id="node3" class="node"><title>ApplicationRecord</title>
<ellipse fill="none" stroke="black" cx="407" cy="-255" rx="77.1866" ry="18"/>
<text text-anchor="middle" x="407" y="-251.3" font-family="Times,serif" font-size="14.00">ApplicationRecord</text>
</g>
<!-- User -->
<g id="node4" class="node"><title>User</title>
<ellipse fill="none" stroke="black" cx="272" cy="-90" rx="27.0966" ry="18"/>
<text text-anchor="middle" x="272" y="-86.3" font-family="Times,serif" font-size="14.00">User</text>
</g>
<!-- User&#45;&gt;Phone -->
<g id="edge1" class="edge"><title>User&#45;&gt;Phone</title>
<path fill="none" stroke="#6c13b7" d="M272,-63.6398C272,-58.0629 272,-52.1319 272,-46.4761"/>
<ellipse fill="none" stroke="#6c13b7" cx="272" cy="-67.6966" rx="4" ry="4"/>
<polygon fill="#6c13b7" stroke="#6c13b7" points="272,-46.1043 276.5,-36.1043 272,-41.1043 272,-36.1043 272,-36.1043 272,-36.1043 272,-41.1043 267.5,-36.1044 272,-46.1043 272,-46.1043"/>
</g>
<!-- Province -->
<g id="node5" class="node"><title>Province</title>
<ellipse fill="none" stroke="black" cx="272" cy="-162" rx="42.4939" ry="18"/>
<text text-anchor="middle" x="272" y="-158.3" font-family="Times,serif" font-size="14.00">Province</text>
</g>
<!-- Province&#45;&gt;User -->
<g id="edge2" class="edge"><title>Province&#45;&gt;User</title>
<path fill="none" stroke="#b715ad" d="M272,-135.64C272,-130.063 272,-124.132 272,-118.476"/>
<ellipse fill="none" stroke="#b715ad" cx="272" cy="-139.697" rx="4" ry="4"/>
<polygon fill="#b715ad" stroke="#b715ad" points="272,-118.104 276.5,-108.104 272,-113.104 272,-108.104 272,-108.104 272,-108.104 272,-113.104 267.5,-108.104 272,-118.104 272,-118.104"/>
</g>
<!-- Country -->
<g id="node6" class="node"><title>Country</title>
<ellipse fill="none" stroke="black" cx="272" cy="-255" rx="39.7935" ry="18"/>
<text text-anchor="middle" x="272" y="-251.3" font-family="Times,serif" font-size="14.00">Country</text>
</g>
<!-- Country&#45;&gt;Province -->
<g id="edge3" class="edge"><title>Country&#45;&gt;Province</title>
<path fill="none" stroke="#a4827b" d="M272,-228.729C272,-216.725 272,-202.362 272,-190.129"/>
<ellipse fill="none" stroke="#a4827b" cx="272" cy="-232.884" rx="4" ry="4"/>
<polygon fill="#a4827b" stroke="#a4827b" points="272,-190.04 276.5,-180.04 272,-185.04 272,-180.04 272,-180.04 272,-180.04 272,-185.04 267.5,-180.04 272,-190.04 272,-190.04"/>
</g>
</g>
</svg>
